<svg xmlns="http://www.w3.org/2000/svg" xmlns:xlink="http://www.w3.org/1999/xlink" width="500" zoomAndPan="magnify" viewBox="0 0 375 374.999991" height="500" preserveAspectRatio="xMidYMid meet" version="1.0"><defs><g/><clipPath id="6df863e3ce"><path d="M 223 84.335938 L 240 84.335938 L 240 206.585938 L 223 206.585938 Z M 223 84.335938 " clip-rule="nonzero"/></clipPath><clipPath id="a12cb2434a"><path d="M 269 126 L 285.589844 126 L 285.589844 165 L 269 165 Z M 269 126 " clip-rule="nonzero"/></clipPath><clipPath id="e6ae2ad2c1"><path d="M 177.589844 126 L 194 126 L 194 165 L 177.589844 165 Z M 177.589844 126 " clip-rule="nonzero"/></clipPath><clipPath id="f130769c8a"><path d="M 87.644531 78 L 186 78 L 186 222 L 87.644531 222 Z M 87.644531 78 " clip-rule="nonzero"/></clipPath></defs><g clip-path="url(#6df863e3ce)"><path fill="#ffffff" d="M 231.550781 206.335938 C 227.199219 206.335938 223.6875 202.820312 223.6875 198.46875 L 223.6875 92.453125 C 223.6875 88.101562 227.199219 84.585938 231.550781 84.585938 C 235.898438 84.585938 239.414062 88.101562 239.414062 92.453125 L 239.414062 198.46875 C 239.414062 202.820312 235.898438 206.335938 231.550781 206.335938 Z M 231.550781 206.335938 " fill-opacity="1" fill-rule="nonzero"/></g><path fill="#ffffff" d="M 254.640625 186.921875 C 250.289062 186.921875 246.773438 183.40625 246.773438 179.054688 L 246.773438 111.863281 C 246.773438 107.515625 250.289062 104 254.640625 104 C 258.988281 104 262.503906 107.515625 262.503906 111.863281 L 262.503906 179.054688 C 262.503906 183.324219 258.988281 186.921875 254.640625 186.921875 Z M 254.640625 186.921875 " fill-opacity="1" fill-rule="nonzero"/><g clip-path="url(#a12cb2434a)"><path fill="#ffffff" d="M 277.726562 164.664062 C 273.378906 164.664062 269.863281 161.148438 269.863281 156.796875 L 269.863281 134.121094 C 269.863281 129.769531 273.378906 126.257812 277.726562 126.257812 C 282.078125 126.257812 285.589844 129.769531 285.589844 134.121094 L 285.589844 156.882812 C 285.589844 161.148438 281.996094 164.664062 277.726562 164.664062 Z M 277.726562 164.664062 " fill-opacity="1" fill-rule="nonzero"/></g><path fill="#ffffff" d="M 208.542969 186.921875 C 204.195312 186.921875 200.679688 183.40625 200.679688 179.054688 L 200.679688 111.863281 C 200.679688 107.515625 204.195312 104 208.542969 104 C 212.894531 104 216.40625 107.515625 216.40625 111.863281 L 216.40625 179.054688 C 216.324219 183.324219 212.8125 186.921875 208.542969 186.921875 Z M 208.542969 186.921875 " fill-opacity="1" fill-rule="nonzero"/><g clip-path="url(#e6ae2ad2c1)"><path fill="#ffffff" d="M 185.457031 164.664062 C 181.105469 164.664062 177.589844 161.148438 177.589844 156.796875 L 177.589844 134.039062 C 177.589844 129.6875 181.105469 126.171875 185.457031 126.171875 C 189.804688 126.171875 193.320312 129.6875 193.320312 134.039062 L 193.320312 156.796875 C 193.320312 161.148438 189.722656 164.664062 185.457031 164.664062 Z M 185.457031 164.664062 " fill-opacity="1" fill-rule="nonzero"/></g><path fill="#ffffff" d="M 135.082031 126.796875 C 133.429688 113.324219 113.558594 114.546875 113.570312 128.121094 L 113.570312 140.003906 C 113.570312 141.925781 114.628906 143.679688 116.332031 144.578125 C 124.160156 148.6875 125.269531 159.480469 118.449219 165.105469 C 117.265625 166.089844 116.570312 167.554688 116.570312 169.097656 L 116.570312 174.925781 C 116.582031 183.277344 128.652344 184.378906 130.175781 176.164062 C 130.554688 174.191406 133.503906 174.734375 133.152344 176.71875 C 131.007812 188.625 113.507812 187.019531 113.542969 174.925781 L 113.542969 169.097656 C 113.542969 166.644531 114.640625 164.320312 116.53125 162.765625 C 121.675781 158.507812 120.84375 150.367188 114.929688 147.257812 C 112.234375 145.855469 110.542969 143.050781 110.542969 140.003906 L 110.542969 128.121094 C 110.554688 94.453125 160.316406 92.65625 162.734375 126.253906 C 163.441406 136.148438 161.703125 146.070312 157.652344 155.121094 C 156.796875 156.875 154.160156 155.699219 154.890625 153.882812 C 158.738281 145.285156 160.390625 135.859375 159.722656 126.46875 C 158.09375 103.617188 127.894531 96.753906 116.597656 116.660156 C 125.132812 110.84375 136.808594 116.140625 138.082031 126.417969 C 138.195312 128.324219 135.421875 128.667969 135.082031 126.796875 " fill-opacity="1" fill-rule="nonzero"/><path fill="#ffffff" d="M 133.015625 176.707031 C 132.976562 176.921875 132.6875 177.414062 132.332031 177.617188 C 132.054688 177.78125 131.839844 177.769531 131.613281 177.757812 C 131.890625 177.125 132.875 177.441406 133.015625 176.707031 Z M 157.566406 154.855469 C 157.566406 154.878906 157.578125 154.957031 157.566406 154.980469 L 157.527344 155.070312 C 157.554688 155.003906 157.539062 154.929688 157.566406 154.867188 Z M 137.566406 125.734375 C 137.703125 125.921875 137.90625 126.125 137.933594 126.265625 L 137.945312 126.417969 C 137.90625 126.113281 137.617188 126.023438 137.566406 125.734375 Z M 135.636719 99.078125 C 128.636719 99.332031 121.675781 101.871094 116.40625 106.777344 C 111.136719 111.679688 107.65625 118.984375 107.65625 128.121094 L 107.65625 140.003906 C 107.65625 144.125 109.949219 147.914062 113.59375 149.824219 C 117.769531 152.023438 118.335938 157.535156 114.691406 160.542969 C 112.144531 162.652344 110.667969 165.785156 110.667969 169.097656 L 110.667969 174.914062 C 110.644531 182.367188 116.394531 187.160156 122.269531 187.691406 C 128.148438 188.234375 134.691406 184.566406 136.003906 177.238281 L 136.003906 177.210938 C 136.21875 176 135.890625 174.648438 135.15625 173.722656 C 134.4375 172.800781 133.46875 172.308594 132.472656 172.117188 C 131.464844 171.941406 130.367188 172.070312 129.355469 172.675781 C 128.359375 173.28125 127.578125 174.433594 127.351562 175.632812 L 127.351562 175.65625 C 126.847656 178.386719 125.058594 179.058594 123.078125 178.878906 C 121.097656 178.703125 119.472656 177.707031 119.472656 174.914062 L 119.472656 169.097656 C 119.472656 168.414062 119.761719 167.769531 120.289062 167.339844 C 128.625 160.464844 127.238281 147.03125 117.667969 142.011719 C 116.910156 141.621094 116.457031 140.851562 116.457031 140.003906 L 116.457031 128.121094 C 116.445312 122.738281 119.960938 120.4375 123.871094 120.199219 C 127.792969 119.945312 131.5625 121.816406 132.21875 127.148438 L 132.230469 127.3125 C 132.445312 128.476562 133.191406 129.601562 134.136719 130.222656 C 135.082031 130.839844 136.117188 131.003906 137.101562 130.890625 C 138.082031 130.765625 139.078125 130.347656 139.847656 129.511719 C 140.605469 128.679688 141.035156 127.414062 140.972656 126.238281 L 140.972656 126.136719 L 140.945312 126.050781 C 139.847656 117.226562 132.167969 113.539062 124.175781 113.523438 C 129.167969 109.203125 135.144531 106.992188 141.148438 108.355469 C 149.21875 110.1875 156.117188 116.496094 156.847656 126.667969 C 157.476562 135.59375 155.914062 144.539062 152.269531 152.707031 L 152.246094 152.757812 L 152.230469 152.792969 C 151.777344 153.90625 151.789062 155.285156 152.269531 156.320312 C 152.761719 157.355469 153.59375 158.066406 154.515625 158.480469 C 155.421875 158.886719 156.492188 159.039062 157.589844 158.695312 C 158.699219 158.367188 159.722656 157.46875 160.238281 156.394531 L 160.289062 156.296875 C 164.527344 146.804688 166.355469 136.402344 165.609375 126.023438 C 164.953125 116.910156 160.96875 109.886719 155.359375 105.371094 C 149.746094 100.859375 142.648438 98.824219 135.636719 99.078125 " fill-opacity="1" fill-rule="nonzero"/><path fill="#ffffff" d="M 179.671875 125.027344 C 181.234375 146.855469 173.480469 168.339844 158.335938 184.101562 L 133.757812 209.695312 C 122.296875 221.625 102.171875 213.5 102.171875 196.929688 L 102.171875 191.710938 C 102.070312 189.800781 99.257812 189.800781 99.15625 191.710938 L 99.15625 196.929688 C 99.144531 216.230469 122.597656 225.695312 135.941406 211.792969 L 160.515625 186.199219 C 176.253906 169.820312 184.324219 147.5 182.699219 124.8125 C 178.523438 65.394531 90.457031 68.554688 90.53125 128.121094 L 90.53125 147.550781 C 90.554688 149.546875 93.542969 149.546875 93.570312 147.550781 L 93.570312 128.121094 C 93.609375 72.574219 175.660156 69.628906 179.671875 125.027344 " fill-opacity="1" fill-rule="nonzero"/><g clip-path="url(#f130769c8a)"><path fill="#ffffff" d="M 134.90625 78.957031 C 123.015625 79.386719 111.238281 83.734375 102.359375 92 C 93.480469 100.277344 87.617188 112.515625 87.644531 128.121094 L 87.644531 147.574219 C 87.65625 148.800781 88.234375 150.050781 89.105469 150.835938 C 89.976562 151.605469 91.035156 151.933594 92.058594 151.933594 C 93.066406 151.933594 94.125 151.605469 94.996094 150.835938 C 95.878906 150.0625 96.445312 148.800781 96.457031 147.574219 L 96.457031 128.121094 C 96.46875 114.941406 101.238281 105.222656 108.4375 98.535156 C 115.625 91.835938 125.347656 88.210938 135.234375 87.867188 C 145.105469 87.5 155.082031 90.421875 162.734375 96.589844 C 170.390625 102.742188 175.835938 112.097656 176.785156 125.230469 C 178.296875 146.246094 170.832031 166.910156 156.253906 182.089844 L 131.664062 207.683594 C 126.746094 212.804688 120.214844 213.523438 114.742188 211.300781 C 109.257812 209.085938 105.058594 204.03125 105.058594 196.917969 L 105.058594 191.53125 C 104.980469 190.355469 104.402344 189.15625 103.542969 188.421875 C 102.6875 187.691406 101.652344 187.375 100.667969 187.375 C 99.671875 187.375 98.640625 187.691406 97.78125 188.421875 C 96.925781 189.15625 96.34375 190.355469 96.28125 191.53125 L 96.257812 191.632812 L 96.257812 196.917969 C 96.257812 207.75 102.964844 216.066406 111.476562 219.503906 C 119.976562 222.941406 130.53125 221.585938 138.019531 213.800781 L 162.597656 188.195312 C 178.914062 171.222656 187.261719 148.117188 185.585938 124.609375 C 184.488281 109.050781 177.78125 97.234375 168.335938 89.625 C 158.890625 82.015625 146.808594 78.527344 134.90625 78.957031 " fill-opacity="1" fill-rule="nonzero"/></g><g fill="#ffffff" fill-opacity="1"><g transform="translate(18.03516, 285.489766)"><g><path d="M 24.582031 1.777344 C 37.585938 1.777344 46.679688 -4.617188 46.679688 -15.203125 C 46.679688 -23.445312 41.421875 -28.136719 29.910156 -30.054688 L 22.734375 -31.402344 C 17.476562 -32.398438 15.203125 -34.101562 15.203125 -37.15625 C 15.203125 -40.78125 18.332031 -43.410156 23.304688 -43.410156 C 28.207031 -43.410156 31.972656 -40.285156 32.609375 -35.382812 L 43.480469 -37.796875 C 42.203125 -46.605469 34.03125 -52.363281 23.445312 -52.363281 C 11.722656 -52.363281 3.269531 -45.96875 3.269531 -36.019531 C 3.269531 -28.0625 8.242188 -23.585938 19.394531 -21.457031 L 26.429688 -20.105469 C 32.398438 -18.898438 34.882812 -17.050781 34.882812 -13.925781 C 34.882812 -10.019531 31.117188 -7.246094 25.078125 -7.246094 C 18.332031 -7.246094 13.355469 -11.226562 12.644531 -17.265625 L 1.5625 -15.203125 C 2.699219 -4.261719 12.007812 1.777344 24.582031 1.777344 Z M 24.582031 1.777344 "/></g></g></g><g fill="#ffffff" fill-opacity="1"><g transform="translate(65.773384, 285.489766)"><g><path d="M 21.8125 1.421875 C 34.03125 1.421875 42.058594 -6.324219 42.058594 -18.1875 C 42.058594 -30.054688 34.03125 -37.796875 21.8125 -37.796875 C 9.664062 -37.796875 1.632812 -30.054688 1.632812 -18.1875 C 1.632812 -6.324219 9.664062 1.421875 21.8125 1.421875 Z M 21.8125 -7.601562 C 15.984375 -7.601562 12.292969 -11.652344 12.292969 -18.1875 C 12.292969 -24.722656 15.984375 -28.773438 21.8125 -28.773438 C 27.636719 -28.773438 31.332031 -24.722656 31.332031 -18.1875 C 31.332031 -11.652344 27.636719 -7.601562 21.8125 -7.601562 Z M 21.8125 -7.601562 "/></g></g></g><g fill="#ffffff" fill-opacity="1"><g transform="translate(109.391335, 285.489766)"><g><path d="M 21.242188 1.421875 C 31.617188 1.421875 39.429688 -4.972656 40.425781 -14.351562 L 30.335938 -15.773438 C 29.769531 -10.800781 26.144531 -7.390625 21.597656 -7.390625 C 16.339844 -7.390625 12.503906 -11.722656 12.433594 -18.1875 C 12.433594 -24.652344 15.984375 -28.988281 20.886719 -28.988281 C 24.582031 -28.988281 27.78125 -26.429688 28.5625 -21.667969 L 38.4375 -24.226562 C 36.875 -32.328125 29.769531 -37.796875 20.605469 -37.796875 C 9.308594 -37.796875 1.632812 -29.839844 1.632812 -18.1875 C 1.632812 -6.535156 9.519531 1.421875 21.242188 1.421875 Z M 21.242188 1.421875 "/></g></g></g><g fill="#ffffff" fill-opacity="1"><g transform="translate(151.0202, 285.489766)"><g><path d="M 8.527344 -41.351562 C 12.363281 -41.351562 14.992188 -43.835938 14.992188 -47.53125 C 14.992188 -51.296875 12.363281 -53.78125 8.527344 -53.78125 C 4.6875 -53.78125 2.132812 -51.296875 2.132812 -47.53125 C 2.132812 -43.835938 4.6875 -41.351562 8.527344 -41.351562 Z M 3.125 0 L 13.925781 0 L 13.925781 -36.375 L 3.125 -36.375 Z M 3.125 0 "/></g></g></g><g fill="#ffffff" fill-opacity="1"><g transform="translate(168.140606, 285.489766)"><g><path d="M 14.066406 1.066406 C 20.175781 1.066406 24.9375 -1.917969 27.28125 -6.253906 L 27.351562 -6.253906 L 27.496094 -4.972656 C 27.992188 -1.632812 31.402344 1.066406 35.808594 1.066406 C 39.148438 1.066406 42.914062 -0.0703125 45.113281 -2.273438 L 42.558594 -8.027344 C 41.777344 -7.035156 40.640625 -6.394531 39.714844 -6.394531 C 38.578125 -6.394531 37.867188 -7.390625 37.867188 -9.023438 L 37.867188 -23.089844 C 37.867188 -32.183594 30.976562 -37.796875 20.320312 -37.796875 C 9.875 -37.796875 2.84375 -32.328125 2.203125 -24.796875 L 12.789062 -23.160156 C 13.144531 -26.785156 16.199219 -29.910156 20.605469 -29.910156 C 24.511719 -29.910156 27.210938 -27.851562 27.210938 -24.722656 C 27.210938 -23.234375 26.074219 -22.238281 24.371094 -22.097656 L 17.335938 -21.242188 C 6.464844 -20.105469 1.066406 -15.558594 1.066406 -9.308594 C 1.066406 -3.054688 6.464844 1.066406 14.066406 1.066406 Z M 18.1875 -6.394531 C 14.566406 -6.394531 11.9375 -8.097656 11.9375 -10.585938 C 11.9375 -12.929688 13.996094 -14.847656 20.035156 -15.558594 L 27 -16.339844 L 27 -14.847656 C 27 -9.945312 23.304688 -6.394531 18.1875 -6.394531 Z M 18.1875 -6.394531 "/></g></g></g><g fill="#ffffff" fill-opacity="1"><g transform="translate(213.250386, 285.489766)"><g><path d="M 2.84375 0 L 13.710938 0 L 13.710938 -52.71875 L 2.84375 -52.71875 Z M 2.84375 0 "/></g></g></g><g fill="#ffffff" fill-opacity="1"><g transform="translate(229.804681, 285.489766)"><g><path d="M 3.695312 0 L 40.710938 0 L 40.710938 -12.078125 L 18.683594 -12.078125 L 18.683594 -20.675781 L 37.15625 -20.675781 L 37.15625 -31.117188 L 18.683594 -31.117188 L 18.683594 -38.792969 L 40 -38.792969 L 40 -50.871094 L 3.695312 -50.871094 Z M 3.695312 0 "/></g></g></g><g fill="#ffffff" fill-opacity="1"><g transform="translate(272.072893, 285.489766)"><g><path d="M 13.355469 0.851562 C 19.324219 0.851562 24.015625 -2.203125 26.214844 -6.464844 L 26.289062 -6.464844 L 26.429688 -5.398438 C 27.140625 -1.988281 31.191406 0.851562 36.164062 0.851562 C 39.785156 0.851562 43.90625 -0.140625 46.535156 -2.34375 L 44.191406 -9.234375 C 43.410156 -8.453125 42.203125 -7.957031 41.351562 -7.957031 C 40.210938 -7.957031 39.503906 -8.953125 39.503906 -10.65625 L 39.503906 -22.523438 C 39.503906 -32.253906 32.46875 -38.082031 20.960938 -38.082031 C 9.945312 -38.082031 2.84375 -32.609375 2.273438 -24.226562 L 15.773438 -22.734375 C 16.269531 -26.074219 18.332031 -28.5625 21.527344 -28.5625 C 24.15625 -28.5625 26.003906 -27 26.003906 -24.511719 C 26.003906 -23.089844 24.867188 -22.097656 23.234375 -21.953125 L 17.195312 -21.3125 C 6.75 -20.320312 0.851562 -15.84375 0.851562 -9.234375 C 0.851562 -3.125 6.039062 0.851562 13.355469 0.851562 Z M 19.324219 -7.957031 C 16.625 -7.957031 14.707031 -9.308594 14.707031 -11.15625 C 14.707031 -13.074219 16.410156 -14.492188 21.101562 -14.992188 L 25.789062 -15.488281 L 25.789062 -14.566406 C 25.789062 -10.800781 23.089844 -7.957031 19.324219 -7.957031 Z M 19.324219 -7.957031 "/></g></g></g><g fill="#ffffff" fill-opacity="1"><g transform="translate(318.603446, 285.489766)"><g><path d="M 25.71875 -37.585938 C 21.386719 -37.585938 17.546875 -35.027344 15.628906 -30.621094 L 15.558594 -30.621094 L 13.355469 -36.660156 L 2.488281 -36.660156 L 2.488281 0 L 16.199219 0 L 16.199219 -19.894531 C 16.199219 -24.796875 18.117188 -27.707031 21.242188 -27.707031 C 23.941406 -27.707031 25.71875 -25.292969 26.003906 -21.101562 L 37.511719 -24.085938 C 36.660156 -32.609375 32.253906 -37.585938 25.71875 -37.585938 Z M 25.71875 -37.585938 "/></g></g></g></svg>